<svg viewBox="21 9 33 37" fill="none" xmlns="http://www.w3.org/2000/svg">
<path d="M24 14.4974C24.0004 14.0588 24.1163 13.628 24.3359 13.2483C24.5555 12.8686 24.8711 12.5534 25.2511 12.3343C25.6311 12.1152 26.062 11.9999 26.5006 12C26.9393 12.0001 27.3701 12.1156 27.75 12.3349L50.25 25.3224C50.6306 25.5417 50.9467 25.8574 51.1665 26.2377C51.3863 26.618 51.5021 27.0494 51.5021 27.4887C51.5021 27.9279 51.3863 28.3594 51.1665 28.7397C50.9467 29.12 50.6306 29.4357 50.25 29.6549L27.75 42.6449C27.37 42.8644 26.9389 42.9799 26.5 42.9799C26.0612 42.9799 25.6301 42.8644 25.25 42.645C24.87 42.4255 24.5544 42.11 24.335 41.7299C24.1155 41.3499 24 40.9188 24 40.4799V14.4974Z" fill="white"/>
</svg>
